<svg width="24" height="24" viewBox="0 0 24 24" fill="none" xmlns="http://www.w3.org/2000/svg">
<path d="M23.3571 7.5H0.642857C0.289286 7.5 0 7.24687 0 6.9375V5.25C0 4.00781 1.15179 3 2.57143 3H5.14286V0.5625C5.14286 0.253125 5.43214 0 5.78571 0H7.92857C8.28214 0 8.57143 0.253125 8.57143 0.5625V3H15.4286V0.5625C15.4286 0.253125 15.7179 0 16.0714 0H18.2143C18.5679 0 18.8571 0.253125 18.8571 0.5625V3H21.4286C22.8482 3 24 4.00781 24 5.25V6.9375C24 7.24687 23.7107 7.5 23.3571 7.5ZM0.642857 9H23.3571C23.7107 9 24 9.25313 24 9.5625V21.75C24 22.9922 22.8482 24 21.4286 24H2.57143C1.15179 24 0 22.9922 0 21.75V9.5625C0 9.25313 0.289286 9 0.642857 9ZM14.4268 16.5L17.0036 14.2453C17.2554 14.025 17.2554 13.6687 17.0036 13.4484L15.4875 12.1219C15.2357 11.9016 14.8286 11.9016 14.5768 12.1219L12 14.3766L9.42321 12.1219C9.17143 11.9016 8.76429 11.9016 8.5125 12.1219L6.99643 13.4484C6.74464 13.6687 6.74464 14.025 6.99643 14.2453L9.57321 16.5L6.99643 18.7547C6.74464 18.975 6.74464 19.3312 6.99643 19.5516L8.5125 20.8781C8.76429 21.0984 9.17143 21.0984 9.42321 20.8781L12 18.6234L14.5768 20.8781C14.8286 21.0984 15.2357 21.0984 15.4875 20.8781L17.0036 19.5516C17.2554 19.3312 17.2554 18.975 17.0036 18.7547L14.4268 16.5Z" fill="white"/>
</svg>
