<svg width="16" height="18" viewBox="0 0 16 18" fill="none" xmlns="http://www.w3.org/2000/svg">
<path d="M3.875 12V17.875H2.125V12V11.875H2H0.125V10.125H2H2.125V10V8V7.875H2H0.125V6.125H2H2.125V6V0.125H3.92737L7.3114 6.0619L7.34737 6.125H7.42H12H12.125V6V0.125H13.875V6V6.125H14H15.875V7.875H14H13.875V8V10V10.125H14H15.875V11.875H14H13.875V12V17.875H12.0725L8.67852 11.938L8.64252 11.875H8.57H4H3.875V12ZM3.875 6V6.125H4H5.13H5.3458L5.23843 5.9378L4.10843 3.96781L3.875 3.56085V4.03V6ZM4 7.875H3.875V8V10V10.125H4H7.42H7.63513L7.5286 9.9381L6.3886 7.9381L6.35263 7.875H6.28H4ZM11.8916 14.0623L12.125 14.4682V14V12V11.875H12H10.85H10.6339L10.7416 12.0623L11.8916 14.0623ZM8.56 7.875H8.34394L8.45164 8.06231L9.60164 10.0623L9.63768 10.125H9.71H12H12.125V10V8V7.875H12H8.56Z" fill="#333333" stroke="#33AD64" stroke-width="0.25"/>
</svg>
