<svg width="24" height="24" viewBox="0 0 24 24" fill="none" xmlns="http://www.w3.org/2000/svg">
<path d="M10.8 10.8H13.2V3.6H10.8V10.8ZM12 15.6C12.34 15.6 12.6252 15.4848 12.8556 15.2544C13.0852 15.0248 13.2 14.74 13.2 14.4C13.2 14.06 13.0852 13.7748 12.8556 13.5444C12.6252 13.3148 12.34 13.2 12 13.2C11.66 13.2 11.3752 13.3148 11.1456 13.5444C10.9152 13.7748 10.8 14.06 10.8 14.4C10.8 14.74 10.9152 15.0248 11.1456 15.2544C11.3752 15.4848 11.66 15.6 12 15.6ZM0 24V2.4C0 1.74 0.2352 1.1748 0.7056 0.7044C1.1752 0.2348 1.74 0 2.4 0H21.6C22.26 0 22.8252 0.2348 23.2956 0.7044C23.7652 1.1748 24 1.74 24 2.4V16.8C24 17.46 23.7652 18.0252 23.2956 18.4956C22.8252 18.9652 22.26 19.2 21.6 19.2H4.8L0 24ZM2.4 18.21L3.81 16.8H21.6V2.4H2.4V18.21Z" fill="white"/>
</svg>
