<svg width="20" height="20" viewBox="0 0 20 20" fill="none" xmlns="http://www.w3.org/2000/svg">
<path d="M1 0H19C19.2652 0 19.5196 0.117063 19.7071 0.325437C19.8946 0.533811 20 0.816426 20 1.11111V18.8889C20 19.1836 19.8946 19.4662 19.7071 19.6746C19.5196 19.8829 19.2652 20 19 20H1C0.734784 20 0.48043 19.8829 0.292893 19.6746C0.105357 19.4662 0 19.1836 0 18.8889V1.11111C0 0.816426 0.105357 0.533811 0.292893 0.325437C0.48043 0.117063 0.734784 0 1 0ZM12.793 7.54778L10.343 10.27L8.222 7.91222L3.979 12.6267L5.393 14.1978L8.222 11.0556L10.343 13.4122L14.207 9.11889L16 11.1111V5.55556H11L12.793 7.54778Z" fill="#333333"/>
</svg>
