<svg width="24" height="24" viewBox="0 0 24 24" fill="none" xmlns="http://www.w3.org/2000/svg">
<path d="M22.8 0H1.2C0.537375 0 0 0.767679 0 1.71429V22.2857C0 23.2323 0.537375 24 1.2 24H22.8C23.4626 24 24 23.2323 24 22.2857V1.71429C24 0.767679 23.4626 0 22.8 0ZM6.6 15.8507V16.7143C6.6 16.9511 6.46575 17.1429 6.3 17.1429H5.7C5.53425 17.1429 5.4 16.9511 5.4 16.7143V15.8416C4.97662 15.8105 4.56488 15.5995 4.22363 15.2336C4.07737 15.0766 4.06988 14.7638 4.20225 14.5832L4.64288 13.9827C4.74675 13.8413 4.90125 13.8348 5.02275 13.9436C5.16788 14.0732 5.3325 14.1429 5.5035 14.1429H6.55763C6.80137 14.1429 7.00013 13.8257 7.00013 13.4362C7.00013 13.1175 6.86475 12.8368 6.67125 12.7543L4.98375 12.0311C4.28662 11.7321 3.7995 10.7764 3.7995 9.70661C3.7995 8.39304 4.51388 7.32589 5.39963 7.29214V6.42857C5.39963 6.19179 5.53388 6 5.69963 6H6.29963C6.46538 6 6.59963 6.19179 6.59963 6.42857V7.30125C7.023 7.33232 7.43475 7.54286 7.776 7.90929C7.92225 8.06625 7.92975 8.37911 7.79738 8.55964L7.35675 9.16018C7.25287 9.30161 7.09838 9.30804 6.97688 9.19929C6.83175 9.06911 6.66713 9 6.49613 9H5.442C5.19825 9 4.9995 9.31714 4.9995 9.70661C4.9995 10.0254 5.13488 10.3061 5.32837 10.3886L7.01588 11.1118C7.713 11.4107 8.20013 12.3664 8.20013 13.4362C8.20013 14.7504 7.48575 15.817 6.6 15.8507ZM15.6 15C15.6 15.2368 15.4658 15.4286 15.3 15.4286H11.1C10.9343 15.4286 10.8 15.2368 10.8 15V14.1429C10.8 13.9061 10.9343 13.7143 11.1 13.7143H15.3C15.4658 13.7143 15.6 13.9061 15.6 14.1429V15ZM21.6 15C21.6 15.2368 21.4658 15.4286 21.3 15.4286H18.3C18.1343 15.4286 18 15.2368 18 15V14.1429C18 13.9061 18.1343 13.7143 18.3 13.7143H21.3C21.4658 13.7143 21.6 13.9061 21.6 14.1429V15ZM21.6 9.85714C21.6 10.0939 21.4658 10.2857 21.3 10.2857H11.1C10.9343 10.2857 10.8 10.0939 10.8 9.85714V9C10.8 8.76321 10.9343 8.57143 11.1 8.57143H21.3C21.4658 8.57143 21.6 8.76321 21.6 9V9.85714Z" fill="white"/>
</svg>
