<svg width="24" height="25" viewBox="0 0 24 25" fill="none" xmlns="http://www.w3.org/2000/svg">
<path d="M19.6 21.1426L13.3 14.8426C12.8 15.2426 12.225 15.5592 11.575 15.7926C10.925 16.0259 10.2333 16.1426 9.5 16.1426C7.68333 16.1426 6.146 15.5132 4.888 14.2546C3.63 12.9959 3.00067 11.4586 3 9.64258C3 7.82591 3.62933 6.28858 4.888 5.03058C6.14667 3.77258 7.684 3.14324 9.5 3.14258C11.3167 3.14258 12.854 3.77191 14.112 5.03058C15.37 6.28924 15.9993 7.82658 16 9.64258C16 10.3759 15.8833 11.0676 15.65 11.7176C15.4167 12.3676 15.1 12.9426 14.7 13.4426L21 19.7426L19.6 21.1426ZM9.5 14.1426C10.75 14.1426 11.8127 13.7049 12.688 12.8296C13.5633 11.9542 14.0007 10.8919 14 9.64258C14 8.39258 13.5623 7.32991 12.687 6.45458C11.8117 5.57924 10.7493 5.14191 9.5 5.14258C8.25 5.14258 7.18733 5.58025 6.312 6.45558C5.43667 7.33091 4.99933 8.39324 5 9.64258C5 10.8926 5.43767 11.9552 6.313 12.8306C7.18833 13.7059 8.25067 14.1432 9.5 14.1426Z" fill="white"/>
</svg>
